<mxfile host="app.diagrams.net" modified="2024-01-09T10:37:31.603Z" agent="Mozilla/5.0 (Windows NT 10.0; Win64; x64) AppleWebKit/537.36 (KHTML, like Gecko) Chrome/120.0.0.0 Safari/537.36" etag="BelmVXP7dlPbkjgYUsVd" version="22.1.17" type="github">
  <diagram id="R2lEEEUBdFMjLlhIrx00" name="Page-1">
    <mxGraphModel dx="2284" dy="738" grid="1" gridSize="10" guides="1" tooltips="1" connect="1" arrows="1" fold="1" page="1" pageScale="1" pageWidth="850" pageHeight="1100" math="0" shadow="0" extFonts="Permanent Marker^https://fonts.googleapis.com/css?family=Permanent+Marker">
      <root>
        <mxCell id="0" />
        <mxCell id="1" parent="0" />
        <mxCell id="gceyH_S4P8IFakWFx-ya-1" value="Departamento" style="whiteSpace=wrap;html=1;align=center;" vertex="1" parent="1">
          <mxGeometry x="190" y="210" width="100" height="40" as="geometry" />
        </mxCell>
        <mxCell id="gceyH_S4P8IFakWFx-ya-2" value="supervisado por" style="shape=rhombus;perimeter=rhombusPerimeter;whiteSpace=wrap;html=1;align=center;" vertex="1" parent="1">
          <mxGeometry x="380" y="200" width="120" height="60" as="geometry" />
        </mxCell>
        <mxCell id="gceyH_S4P8IFakWFx-ya-3" value="Supervisor" style="whiteSpace=wrap;html=1;align=center;" vertex="1" parent="1">
          <mxGeometry x="560" y="210" width="100" height="40" as="geometry" />
        </mxCell>
        <mxCell id="gceyH_S4P8IFakWFx-ya-6" value="Asignado" style="shape=rhombus;perimeter=rhombusPerimeter;whiteSpace=wrap;html=1;align=center;" vertex="1" parent="1">
          <mxGeometry x="180" y="320" width="120" height="60" as="geometry" />
        </mxCell>
        <mxCell id="gceyH_S4P8IFakWFx-ya-7" value="Empleado" style="whiteSpace=wrap;html=1;align=center;" vertex="1" parent="1">
          <mxGeometry x="190" y="450" width="100" height="40" as="geometry" />
        </mxCell>
        <mxCell id="gceyH_S4P8IFakWFx-ya-8" value="Trabaja en&amp;nbsp;" style="shape=rhombus;perimeter=rhombusPerimeter;whiteSpace=wrap;html=1;align=center;" vertex="1" parent="1">
          <mxGeometry x="380" y="440" width="120" height="60" as="geometry" />
        </mxCell>
        <mxCell id="gceyH_S4P8IFakWFx-ya-9" value="Proyecto" style="whiteSpace=wrap;html=1;align=center;" vertex="1" parent="1">
          <mxGeometry x="560" y="450" width="100" height="40" as="geometry" />
        </mxCell>
        <mxCell id="gceyH_S4P8IFakWFx-ya-10" value="" style="endArrow=none;html=1;rounded=0;entryX=0.5;entryY=1;entryDx=0;entryDy=0;exitX=0.5;exitY=0;exitDx=0;exitDy=0;" edge="1" parent="1" source="gceyH_S4P8IFakWFx-ya-6" target="gceyH_S4P8IFakWFx-ya-1">
          <mxGeometry width="50" height="50" relative="1" as="geometry">
            <mxPoint x="140" y="310" as="sourcePoint" />
            <mxPoint x="190" y="260" as="targetPoint" />
          </mxGeometry>
        </mxCell>
        <mxCell id="gceyH_S4P8IFakWFx-ya-11" value="" style="endArrow=none;html=1;rounded=0;exitX=0.5;exitY=0;exitDx=0;exitDy=0;" edge="1" parent="1" source="gceyH_S4P8IFakWFx-ya-7">
          <mxGeometry width="50" height="50" relative="1" as="geometry">
            <mxPoint x="190" y="430" as="sourcePoint" />
            <mxPoint x="240" y="380" as="targetPoint" />
          </mxGeometry>
        </mxCell>
        <mxCell id="gceyH_S4P8IFakWFx-ya-12" value="" style="endArrow=none;html=1;rounded=0;exitX=1;exitY=0.5;exitDx=0;exitDy=0;" edge="1" parent="1" source="gceyH_S4P8IFakWFx-ya-1">
          <mxGeometry width="50" height="50" relative="1" as="geometry">
            <mxPoint x="329" y="280" as="sourcePoint" />
            <mxPoint x="379" y="230" as="targetPoint" />
          </mxGeometry>
        </mxCell>
        <mxCell id="gceyH_S4P8IFakWFx-ya-14" value="" style="endArrow=none;html=1;rounded=0;exitX=1;exitY=0.5;exitDx=0;exitDy=0;" edge="1" parent="1" source="gceyH_S4P8IFakWFx-ya-7">
          <mxGeometry width="50" height="50" relative="1" as="geometry">
            <mxPoint x="329" y="520" as="sourcePoint" />
            <mxPoint x="379" y="470" as="targetPoint" />
          </mxGeometry>
        </mxCell>
        <mxCell id="gceyH_S4P8IFakWFx-ya-15" value="" style="endArrow=none;html=1;rounded=0;entryX=0;entryY=0.5;entryDx=0;entryDy=0;" edge="1" parent="1" target="gceyH_S4P8IFakWFx-ya-9">
          <mxGeometry width="50" height="50" relative="1" as="geometry">
            <mxPoint x="499" y="470" as="sourcePoint" />
            <mxPoint x="549" y="420" as="targetPoint" />
          </mxGeometry>
        </mxCell>
        <mxCell id="gceyH_S4P8IFakWFx-ya-17" value="" style="endArrow=none;html=1;rounded=0;exitX=1;exitY=0.5;exitDx=0;exitDy=0;entryX=0;entryY=0.5;entryDx=0;entryDy=0;entryPerimeter=0;" edge="1" parent="1" source="gceyH_S4P8IFakWFx-ya-2" target="gceyH_S4P8IFakWFx-ya-3">
          <mxGeometry width="50" height="50" relative="1" as="geometry">
            <mxPoint x="480" y="380" as="sourcePoint" />
            <mxPoint x="530" y="330" as="targetPoint" />
          </mxGeometry>
        </mxCell>
        <mxCell id="gceyH_S4P8IFakWFx-ya-44" value="Una empresa tiene varios departamentos. Cada departamento tiene un supervisor y al menos un empleado. Los empleados deben ser asignados a por lo menos uno, pero posiblemente más departamentos. Al menos un empleado es asignado a un proyecto, pero un empleado puede estar de vacaciones y no asignado a ningún proyecto. Los campos de datos importantes son los nombres de los departamentos, proyectos, supervisores y empleados, así como el número de supervisor y empleado y un número de proyecto único." style="text;whiteSpace=wrap;" vertex="1" parent="1">
          <mxGeometry x="160" width="560" height="110" as="geometry" />
        </mxCell>
        <mxCell id="gceyH_S4P8IFakWFx-ya-45" value="" style="ellipse;whiteSpace=wrap;html=1;" vertex="1" parent="1">
          <mxGeometry x="-40" y="170" width="120" height="50" as="geometry" />
        </mxCell>
        <mxCell id="gceyH_S4P8IFakWFx-ya-46" value="" style="shape=table;startSize=0;container=1;collapsible=1;childLayout=tableLayout;fixedRows=1;rowLines=0;fontStyle=0;align=center;resizeLast=1;strokeColor=none;fillColor=none;collapsible=0;whiteSpace=wrap;html=1;" vertex="1" parent="1">
          <mxGeometry x="340" y="360" width="180" height="30" as="geometry" />
        </mxCell>
        <mxCell id="gceyH_S4P8IFakWFx-ya-47" value="" style="shape=tableRow;horizontal=0;startSize=0;swimlaneHead=0;swimlaneBody=0;fillColor=none;collapsible=0;dropTarget=0;points=[[0,0.5],[1,0.5]];portConstraint=eastwest;top=0;left=0;right=0;bottom=0;" vertex="1" parent="gceyH_S4P8IFakWFx-ya-46">
          <mxGeometry width="180" height="30" as="geometry" />
        </mxCell>
        <mxCell id="gceyH_S4P8IFakWFx-ya-48" value="" style="shape=partialRectangle;connectable=0;fillColor=none;top=0;left=0;bottom=0;right=0;editable=1;overflow=hidden;" vertex="1" parent="gceyH_S4P8IFakWFx-ya-47">
          <mxGeometry width="30" height="30" as="geometry">
            <mxRectangle width="30" height="30" as="alternateBounds" />
          </mxGeometry>
        </mxCell>
        <mxCell id="gceyH_S4P8IFakWFx-ya-49" value="" style="shape=partialRectangle;connectable=0;fillColor=none;top=0;left=0;bottom=0;right=0;align=left;spacingLeft=6;overflow=hidden;" vertex="1" parent="gceyH_S4P8IFakWFx-ya-47">
          <mxGeometry x="30" width="150" height="30" as="geometry">
            <mxRectangle width="150" height="30" as="alternateBounds" />
          </mxGeometry>
        </mxCell>
      </root>
    </mxGraphModel>
  </diagram>
</mxfile>
